<?xml version="1.0" encoding="UTF-8" standalone="no"?>
<!-- Created with Inkscape (http://www.inkscape.org/) -->

<svg
   version="1.1"
   id="svg1"
   width="331.69171"
   height="454.52582"
   viewBox="0 0 331.69171 454.52582"
   xmlns="http://www.w3.org/2000/svg"
   xmlns:svg="http://www.w3.org/2000/svg">
  <defs
     id="defs1">
    <rect
       x="388.68228"
       y="700.19971"
       width="348.67087"
       height="154.32973"
       id="rect10" />
  </defs>
  <g
     id="g1"
     transform="translate(-351.58636,-269.61911)">
    <path
       style="fill:#c9a24d;fill-opacity:1;stroke:none"
       d="m 524.12738,460.7207 c -14.69885,8.07474 -16.5889,-23.96692 -1.79236,-12.17334 3.91724,2.72793 7.76137,9.27542 1.79236,12.17334 z"
       id="path8" />
    <path
       style="fill:#c9a24d;fill-opacity:1;stroke:none"
       d="m 521.76591,516.6235 c -6.0293,16.29226 -17.85879,-21.97519 -1.17174,-11.9515 2.67055,3.30991 2.31383,8.12756 1.17174,11.9515 z"
       id="path7" />
    <path
       style="fill:#c9a24d;fill-opacity:1;stroke:none"
       d="m 518.33087,635.7521 c 9.08793,-11.69438 9.39893,-28.01049 12.80137,-42.05637 6.77144,-37.00373 6.29338,-77.46919 28.8746,-109.43002 9.49433,-14.62645 20.95742,-28.50664 27.12066,-44.94341 -1.77418,-11.99266 -29.61219,-15.90732 -12.79297,-28.77167 10.33154,-13.7586 5.59872,-31.48495 0.12933,-46.12413 -6.6121,-17.63431 -13.68906,-35.90002 -25.91858,-50.4004 -9.50283,-9.24915 -3.95287,-25.21094 -13.79206,-34.80712 -6.73353,-13.77877 -21.45111,-12.50054 -25.66703,2.39069 -6.40392,12.38008 -3.57835,30.20449 -20.34262,34.7789 -15.84809,17.16262 -24.87608,39.57471 -31.62594,61.63521 -7.27566,16.48348 11.1814,32.23669 3.48347,47.76328 -13.50698,6.4177 -13.37922,20.50985 -4.029,30.83268 15.20104,23.70069 32.80344,47.20946 36.87516,75.89374 6.20187,32.80042 7.25585,66.54341 14.91269,99.01725 1.80763,3.499 6.17114,5.55297 9.97092,4.22137 z"
       id="path6" />
    <path
       d="m 368.70014,710.79484 -0.14725,12.38763 h -16.96653 v -1.42817 h 0.58913 q 1.28131,0 1.76733,-0.68302 0.50074,-0.68301 0.63332,-2.11116 0.14723,-1.4592 0.14723,-6.73713 v -20.64601 q 0,-5.02956 -0.14723,-6.48875 -0.13266,-1.4592 -0.58912,-2.01801 -0.44186,-0.55887 -1.95883,-0.55887 h -0.44183 v -1.42814 h 9.58786 v 1.42814 h -0.88367 q -1.4728,0 -1.92939,0.52778 -0.45652,0.49678 -0.61855,1.89385 -0.14725,1.39711 -0.14725,6.644 v 22.04312 q 0,4.56384 0.11785,5.71259 0.11787,1.14871 0.63331,1.80067 0.53021,0.62094 2.25335,0.62094 h 1.51699 q 1.84097,0 2.72465,-0.68302 0.8984,-0.68301 1.69371,-2.98046 0.81002,-2.29746 1.47279,-7.29598 z m 17.75521,-0.71406 h 0.70693 l -0.42711,13.10169 h -16.53943 v -1.42817 h 0.41239 q 1.48751,0 1.91461,-0.83826 0.44185,-0.83826 0.55967,-2.11116 0.11786,-1.30396 0.11786,-6.58189 v -20.64601 q 0,-4.81223 -0.13265,-6.33351 -0.11785,-1.52129 -0.57439,-2.11118 -0.44183,-0.62094 -1.88517,-0.62094 v -1.42814 h 14.27132 l 0.4713,10.49377 h -0.6922 q -0.4713,-4.40862 -1.16352,-6.24039 -0.67746,-1.8628 -1.62006,-2.3285 -0.94259,-0.49674 -3.03394,-0.49674 h -2.76885 v 17.66555 h 2.12082 q 1.45806,0 2.03246,-0.52781 0.58909,-0.52777 0.76583,-1.58335 0.19145,-1.08663 0.19145,-4.1913 h 0.69223 v 14.40562 h -0.69223 q 0,-3.50824 -0.27983,-4.68803 -0.27981,-1.21083 -0.82475,-1.55231 -0.53019,-0.37241 -1.81152,-0.37241 h -2.19446 v 9.96596 q 0,7.48226 0.45658,8.81726 0.45655,1.30395 2.45954,1.30395 h 1.48751 q 1.57591,0 2.59212,-0.83827 1.01622,-0.8693 1.92934,-3.50824 0.92788,-2.67002 1.45806,-7.32701 z m 15.84056,-4.87431 h 8.61581 v 1.49023 q -1.4286,0 -1.94408,0.62094 -0.50074,0.58986 -0.66275,2.018 -0.16205,1.39713 -0.16205,6.83029 v 4.47071 q -0.35347,-0.12443 -0.6333,-0.12443 -1.13405,0 -2.97503,1.45919 -2.50374,1.98702 -4.63928,1.98702 -4.28582,0 -7.1283,-5.9299 -2.84249,-5.96099 -2.84249,-15.08868 0,-9.03458 2.70993,-15.83378 2.70994,-6.79925 7.36395,-6.79925 4.00598,0 6.62754,6.20935 0.48603,-2.17325 0.61857,-4.68804 h 0.70694 v 14.0641 h -0.70694 q -0.42711,-6.48872 -2.34173,-10.2764 -1.89989,-3.7877 -4.62453,-3.7877 -2.81306,0 -4.90443,4.40864 -2.09133,4.40857 -2.09133,15.64749 0,11.20783 2.01772,15.89586 2.01771,4.65704 5.00747,4.65704 1.5317,0 2.78359,-1.304 1.25184,-1.33498 1.70842,-3.22884 0.45656,-1.89384 0.45656,-4.78118 0,-3.38409 -0.22092,-4.50176 -0.20619,-1.14875 -0.64802,-1.52127 -0.44184,-0.40361 -1.62007,-0.40361 h -0.47129 z m 22.64485,2.45265 h -7.58486 l -0.51549,2.67003 q -1.14876,5.80574 -1.14876,7.57537 0,1.89386 0.60385,2.88736 0.61855,0.96242 1.57588,0.96242 v 1.42817 h -5.93534 v -1.42817 q 1.3255,-0.43465 1.97352,-1.95592 0.64804,-1.55232 1.56117,-6.48876 0.0737,-0.46569 0.70694,-3.60141 l 5.80278,-29.2149 h 0.57441 l 6.67171,33.43725 0.91313,4.40863 q 0.30929,1.49023 0.82477,2.35953 0.53019,0.83826 1.57589,1.05558 v 1.42817 h -7.84997 v -1.42817 q 1.44333,0 1.94406,-0.43465 0.51551,-0.46569 0.51551,-1.80069 0,-0.68306 -0.67749,-4.06713 z m -0.25037,-1.39707 -3.5347,-17.94499 -3.51997,17.94499 z m 26.1648,1.11767 h 0.63331 v 14.74715 h -0.63331 q -0.26509,-2.51478 -0.95729,-4.43966 -2.6363,6.27142 -6.73066,6.27142 -4.32999,0 -7.08411,-5.77469 -2.73938,-5.77466 -2.73938,-15.27492 0,-6.2404 1.26661,-11.73564 1.26657,-5.5263 3.53468,-8.19634 2.26809,-2.67002 4.97803,-2.67002 2.23862,0 4.05016,1.95598 1.82627,1.92487 2.72467,4.28442 0.63329,-2.63899 0.76584,-5.46421 h 0.64802 l 0.17667,15.95798 h -0.63331 q -0.66274,-8.50681 -2.70993,-11.82876 -2.03244,-3.322 -4.5951,-3.322 -3.13703,0 -4.99274,5.37105 -1.841,5.37108 -1.841,15.36808 0,9.46923 2.01772,14.52983 2.01771,5.02956 5.02221,5.02956 1.60534,0 3.28431,-1.64543 1.679,-1.64548 2.65104,-5.55738 0.98675,-3.94293 1.16349,-7.60642 z m 14.2647,-2.6079 3.93233,-13.93998 q 0.97204,-3.41513 0.97204,-4.84328 0,-1.30395 -0.51547,-2.39058 -0.51546,-1.08663 -1.84097,-1.08663 v -1.42814 h 6.52445 v 1.42814 q -1.35498,0.40362 -2.19445,2.14221 -0.82477,1.70757 -2.12082,6.2404 l -4.47728,15.74062 v 5.58841 q 0,5.37105 0.14724,6.86133 0.16207,1.4592 0.66277,2.08009 0.51549,0.58989 2.003,0.58989 v 1.42817 H 459.7 v -1.42817 h 0.32401 q 1.28134,0 1.76736,-0.68302 0.50075,-0.68301 0.63329,-2.11116 0.13265,-1.4592 0.13265,-6.73713 v -5.1848 l -4.97801,-17.23086 q -1.51699,-5.21584 -2.01774,-6.20935 -0.50075,-1.02454 -1.79681,-1.08663 v -1.42814 h 8.10037 v 1.42814 q -2.26811,0 -2.26811,2.17326 0,0.86931 0.75112,3.47725 z m 35.15692,6.02302 -0.14724,12.38763 H 483.163 v -1.42817 h 0.58912 q 1.28133,0 1.76735,-0.68302 0.50074,-0.68301 0.63328,-2.11116 0.14726,-1.4592 0.14726,-6.73713 v -20.64601 q 0,-5.02956 -0.14726,-6.48875 -0.13264,-1.4592 -0.58912,-2.01801 -0.44181,-0.55887 -1.95878,-0.55887 H 483.163 v -1.42814 h 9.58785 v 1.42814 h -0.88368 q -1.47277,0 -1.92935,0.52778 -0.45658,0.49678 -0.61855,1.89385 -0.14726,1.39711 -0.14726,6.644 v 22.04312 q 0,4.56384 0.11785,5.71259 0.11786,1.14871 0.63331,1.80067 0.53018,0.62094 2.25334,0.62094 h 1.517 q 1.84097,0 2.72465,-0.68302 0.8984,-0.68301 1.6937,-2.98046 0.81003,-2.29746 1.4728,-7.29598 z m 1.31887,-28.28349 v -1.42814 h 9.13129 v 1.42814 h -0.42711 q -1.4728,0 -1.92935,0.52778 -0.45657,0.49678 -0.61857,1.89385 -0.14724,1.39711 -0.14724,6.644 v 20.64601 q 0,4.96749 0.10315,6.5198 0.11785,1.52128 0.58912,2.26642 0.48603,0.74509 1.84099,0.74509 h 0.58909 v 1.42817 h -9.13126 v -1.42817 h 0.58911 q 1.28132,0 1.76735,-0.68302 0.50074,-0.68301 0.63328,-2.11116 0.1325,-1.4592 0.1325,-6.73713 v -20.64601 q 0,-5.02956 -0.1325,-6.48875 -0.13263,-1.4592 -0.58912,-2.01801 -0.45656,-0.55887 -1.97352,-0.55887 z m 26.54775,-1.42814 0.16205,10.49377 h -0.69221 q -0.20619,-3.44617 -0.92788,-5.68154 -0.70692,-2.26641 -1.48751,-2.82522 -0.78056,-0.55887 -2.63628,-0.55887 h -3.9029 v 17.85185 h 1.87044 q 1.81155,0 2.40066,-1.27292 0.60385,-1.304 0.60385,-5.18481 h 0.73639 v 14.84028 h -0.73639 q 0,-2.70102 -0.26512,-4.25338 -0.25036,-1.58335 -0.76586,-2.14221 -0.50075,-0.58989 -1.97353,-0.58989 h -1.87044 v 10.46272 q 0,4.96749 0.11785,6.5198 0.11786,1.52128 0.58912,2.26642 0.48603,0.74509 1.85573,0.74509 h 0.67747 v 1.42817 h -9.27856 v -1.42817 h 0.61857 q 1.28133,0 1.76733,-0.68302 0.50074,-0.68301 0.63332,-2.11116 0.14724,-1.4592 0.14724,-6.73713 v -20.64601 q 0,-5.02956 -0.14724,-6.48875 -0.13265,-1.4592 -0.58911,-2.01801 -0.44187,-0.55887 -1.95882,-0.55887 h -0.35347 v -1.42814 z m 17.79937,28.99757 h 0.70694 l -0.42712,13.10169 h -16.53943 v -1.42817 h 0.41239 q 1.48751,0 1.91461,-0.83826 0.44186,-0.83826 0.55967,-2.11116 0.11786,-1.30396 0.11786,-6.58189 v -20.64601 q 0,-4.81223 -0.1325,-6.33351 -0.11785,-1.52129 -0.57439,-2.11118 -0.44183,-0.62094 -1.88518,-0.62094 v -1.42814 h 14.27134 l 0.4713,10.49377 h -0.69221 q -0.47131,-4.40862 -1.16353,-6.24039 -0.67748,-1.8628 -1.62006,-2.3285 -0.94258,-0.49674 -3.03393,-0.49674 h -2.76897 v 17.66555 h 2.1208 q 1.45807,0 2.03246,-0.52781 0.5891,-0.52777 0.76584,-1.58335 0.19148,-1.08663 0.19148,-4.1913 h 0.69221 v 14.40562 h -0.69221 q 0,-3.50824 -0.27983,-4.68803 -0.27982,-1.21083 -0.82478,-1.55231 -0.5302,-0.37241 -1.81151,-0.37241 h -2.19446 v 9.96596 q 0,7.48226 0.45657,8.81726 0.45656,1.30395 2.45955,1.30395 h 1.48753 q 1.57588,0 2.5921,-0.83827 1.01622,-0.8693 1.92935,-3.50824 0.92785,-2.67002 1.45807,-7.32701 z m 22.77075,-2.42166 h -7.58487 l -0.51546,2.67003 q -1.14878,5.80574 -1.14878,7.57537 0,1.89386 0.60385,2.88736 0.61856,0.96242 1.57589,0.96242 v 1.42817 h -5.93535 v -1.42817 q 1.3255,-0.43465 1.97354,-1.95592 0.64802,-1.55232 1.56115,-6.48876 0.0737,-0.46569 0.70696,-3.60141 l 5.80277,-29.2149 h 0.57438 l 6.67173,33.43725 0.91312,4.40863 q 0.30931,1.49023 0.82479,2.35953 0.5302,0.83826 1.57587,1.05558 v 1.42817 h -7.84995 v -1.42817 q 1.44332,0 1.94407,-0.43465 0.51549,-0.46569 0.51549,-1.80069 0,-0.68306 -0.67748,-4.06713 z m -0.25036,-1.39707 -3.53472,-17.94499 -3.51996,17.94499 z m 20.74496,-1.05558 h 8.6158 v 1.49023 q -1.4286,0 -1.94407,0.62094 -0.50075,0.58986 -0.66275,2.018 -0.16207,1.39713 -0.16207,6.83029 v 4.47071 q -0.35346,-0.12443 -0.63329,-0.12443 -1.13404,0 -2.97503,1.45919 -2.50376,1.98702 -4.63929,1.98702 -4.28581,0 -7.12831,-5.9299 -2.84247,-5.96099 -2.84247,-15.08868 0,-9.03458 2.70993,-15.83378 2.70993,-6.79925 7.36395,-6.79925 4.00599,0 6.62754,6.20935 0.48603,-2.17325 0.61857,-4.68804 h 0.70693 v 14.0641 h -0.70693 q -0.4271,-6.48872 -2.34172,-10.2764 -1.8999,-3.7877 -4.62457,-3.7877 -2.81302,0 -4.90439,4.40864 -2.09133,4.40857 -2.09133,15.64749 0,11.20783 2.0177,15.89586 2.01773,4.65704 5.00748,4.65704 1.5317,0 2.78358,-1.304 1.25185,-1.33498 1.70843,-3.22884 0.45656,-1.89384 0.45656,-4.78118 0,-3.38409 -0.22091,-4.50176 -0.2062,-1.14875 -0.64803,-1.52127 -0.44185,-0.40361 -1.62006,-0.40361 h -0.47129 z m 26.84229,4.87431 h 0.70694 l -0.42712,13.10169 h -16.5394 v -1.42817 h 0.41237 q 1.48752,0 1.91462,-0.83826 0.44182,-0.83826 0.55968,-2.11116 0.11785,-1.30396 0.11785,-6.58189 v -20.64601 q 0,-4.81223 -0.13264,-6.33351 -0.11786,-1.52129 -0.5744,-2.11118 -0.44184,-0.62094 -1.88517,-0.62094 v -1.42814 h 14.27133 l 0.4713,10.49377 h -0.69221 q -0.4713,-4.40862 -1.1635,-6.24039 -0.67749,-1.8628 -1.62007,-2.3285 -0.94261,-0.49674 -3.03396,-0.49674 h -2.76883 v 17.66555 h 2.1208 q 1.45805,0 2.03245,-0.52781 0.58913,-0.52777 0.76586,-1.58335 0.19147,-1.08663 0.19147,-4.1913 h 0.69221 v 14.40562 h -0.69221 q 0,-3.50824 -0.27983,-4.68803 -0.27985,-1.21083 -0.82477,-1.55231 -0.53021,-0.37241 -1.81153,-0.37241 h -2.19445 v 9.96596 q 0,7.48226 0.45655,8.81726 0.45657,1.30395 2.45956,1.30395 h 1.48753 q 1.57587,0 2.5921,-0.83827 1.01623,-0.8693 1.92934,-3.50824 0.92786,-2.67002 1.45809,-7.32701 z m 20.4946,14.06414 -14.12405,-39.46031 v 29.2149 q 0,3.63245 0.16205,4.7812 0.17665,1.14871 0.97203,2.11117 0.79531,0.96242 2.38592,0.96242 v 1.42817 h -7.45231 v -1.42817 q 1.4286,-0.21719 2.17974,-1.08663 0.75112,-0.90033 0.88366,-1.92488 0.14724,-1.02454 0.14724,-4.84328 v -22.32253 q 0,-4.84328 -0.22092,-6.48875 -0.20618,-1.64549 -0.67748,-2.11119 -0.45658,-0.46569 -2.06191,-0.46569 v -1.42814 h 5.89114 l 11.82652,32.94052 v -25.17885 q 0,-2.79419 -0.27983,-3.9119 -0.26511,-1.11767 -1.10459,-1.76964 -0.8395,-0.65199 -2.01772,-0.65199 v -1.42814 h 7.24612 v 1.42814 q -1.26662,0.2172 -2.00301,1.02456 -0.72166,0.80721 -0.92784,1.95593 -0.19147,1.11766 -0.19147,3.81873 v 34.83435 z m 23.39595,-16.7652 h 0.63329 v 14.74715 h -0.63329 q -0.26511,-2.51478 -0.95733,-4.43966 -2.63627,6.27142 -6.73064,6.27142 -4.32998,0 -7.0841,-5.77469 -2.73939,-5.77466 -2.73939,-15.27492 0,-6.2404 1.2666,-11.73564 1.2666,-5.5263 3.53468,-8.19634 2.2681,-2.67002 4.97803,-2.67002 2.23865,0 4.05017,1.95598 1.82625,1.92487 2.72465,4.28442 0.63331,-2.63899 0.76585,-5.46421 h 0.64802 l 0.17666,15.95798 h -0.63328 q -0.66276,-8.50681 -2.70994,-11.82876 -2.03245,-3.322 -4.5951,-3.322 -3.13705,0 -4.99275,5.37105 -1.84101,5.37108 -1.84101,15.36808 0,9.46923 2.01776,14.52983 2.0177,5.02956 5.0222,5.02956 1.60533,0 3.28431,-1.64543 1.67899,-1.64548 2.65102,-5.55738 0.98677,-3.94293 1.16351,-7.60642 z m 14.2647,-2.6079 3.93233,-13.93998 q 0.97205,-3.41513 0.97205,-4.84328 0,-1.30395 -0.51548,-2.39058 -0.51546,-1.08663 -1.84098,-1.08663 v -1.42814 h 6.52446 v 1.42814 q -1.35496,0.40362 -2.19445,2.14221 -0.82475,1.70757 -2.12082,6.2404 l -4.47726,15.74062 v 5.58841 q 0,5.37105 0.14722,6.86133 0.16208,1.4592 0.66278,2.08009 0.51547,0.58989 2.00298,0.58989 v 1.42817 h -8.51271 v -1.42817 h 0.32403 q 1.28131,0 1.76733,-0.68302 0.50075,-0.68301 0.63329,-2.11116 0.13251,-1.4592 0.13251,-6.73713 v -5.1848 l -4.97804,-17.23086 q -1.51697,-5.21584 -2.01771,-6.20935 -0.50076,-1.02454 -1.7968,-1.08663 v -1.42814 h 8.10035 v 1.42814 q -2.26811,0 -2.26811,2.17326 0,0.86931 0.75112,3.47725 z"
       id="text9"
       style="font-size:14.6667px;font-family:Baskerville;-inkscape-font-specification:Baskerville;letter-spacing:0.14px;white-space:pre;inline-size:171.319;fill:#c9a24d;fill-opacity:1;stroke:none;stroke-width:2.98589"
       aria-label="LEGACY LIFE AGENCY" />
    <text
       xml:space="preserve"
       id="text10"
       style="font-style:normal;font-variant:normal;font-weight:normal;font-stretch:normal;font-size:14.6667px;font-family:Baskerville;-inkscape-font-specification:Baskerville;text-align:start;writing-mode:lr-tb;direction:ltr;white-space:pre;shape-inside:url(#rect10);opacity:1;fill:#c9a24d;fill-opacity:1;stroke:none" />
  </g>
</svg>
