<?xml version="1.0" encoding="UTF-8" standalone="no"?>
<!-- Created with Inkscape (http://www.inkscape.org/) -->

<svg
   version="1.1"
   id="svg1"
   width="1024"
   height="1023"
   viewBox="0 0 1024 1023"
   xmlns="http://www.w3.org/2000/svg"
   xmlns:svg="http://www.w3.org/2000/svg">
  <defs
     id="defs1" />
  <g
     id="g1"
     transform="translate(0,-1)">
    <path
       id="path1"
       style="fill:#000000"
       d="m 0,1 c 0,341 0,682 0,1023 341.33333,0 682.66667,0 1024,0 0,-341 0,-682 0,-1023 C 682.66667,1 341.33333,1 0,1 Z m 512.65039,271.5625 c 35.6095,13.46165 5.78089,105.76193 -11.65039,53.75781 9.17226,-16.9714 10.44339,-35.21523 11.65039,-53.75781 z M 485.12109,318 c 44.75972,24.22223 0.82702,93.77047 -28.46095,65.36914 C 469.33247,363.10648 484.92457,343.03061 485.12109,318 Z m 60.97657,1.48828 c -6.10144,33.13574 53.88393,80.77848 -6.91797,69.51172 -25.96852,-25.69638 -16.03146,-45.51437 6.91797,-69.51172 z M 512.78125,367.5 C 538.6633,389.19023 511.18856,452.98001 498,399.61133 502.17535,388.58061 507.79248,378.17161 512.78125,367.5 Z m 58.38867,28.4043 c -1.26323,39.78228 -71.22856,30.70211 -25.50752,1.49675 8.48082,-0.85523 17.00121,-1.06225 25.50752,-1.49675 z m -111.67773,0.16992 c 29.35366,-14.66885 54.92802,46.17835 10.82617,24.10156 -0.31795,-5.53462 -17.93089,-21.18395 -10.82617,-24.10156 z m 119.875,42.71094 c -9.32944,14.12482 -31.84441,58.27687 -41.89063,22.25 -1.51223,22.42063 -32.01914,15.72851 -44.34318,12.25228 -3.12133,-31.23504 -19.9963,28.83208 -30.81971,-9.88201 -42.39818,-43.94223 47.27764,-19.15398 74.55738,-25.36079 14.15946,0.21548 28.35647,-0.16158 42.49614,0.74052 z m -13.41992,3.93164 c -33.5589,3.15367 -84.6569,-5.90283 -108.04478,4.9218 10.78385,36.54146 41.44327,-1.53657 32.7956,5.6854 -1.52699,21.67776 29.97105,24.03213 38.92417,12.78919 7.31688,-38.85514 18.5023,28.65002 30.93555,-8.16342 -5.67913,-1.06485 18.21052,-16.19645 5.38946,-15.23297 z M 513,488 c 17.56385,-2.7582 62.15238,3.32277 19.54102,8.25 -7.4815,48.00433 -8.8814,98.08045 -20.43946,144.75 -9.07392,-47.91068 -12.61861,-97.29929 -19,-145.83594 -39.59072,-2.18014 -2.78619,-10.51577 13.71115,-7.16187 z m -1.05078,6.21875 c -33.91677,4.48236 4.29506,71.39626 -2.55228,98.78086 5.42415,50.03298 10.14228,-44.60782 13.64217,-58.86672 -2.00161,-13.54969 16.50154,-48.54421 -11.08989,-39.91414 z M 769.8457,695.67383 c 35.1062,9.29843 -41.75228,7.4537 -2.17936,29.1798 38.69782,-1.63954 -35.75295,14.92064 -14.26308,-20.2358 3.35505,-5.64446 9.96483,-9.07986 16.44244,-8.944 z m -126.03711,0.18555 c 37.74266,5.3892 -44.37439,11.27014 1.39258,29.52539 32.69112,-27.20147 -11.66488,33.07364 -18.84649,-12.04535 -0.12979,-9.38243 8.0886,-17.76179 17.45391,-17.48004 z m -329.57617,0.0332 c 12.68552,-0.33885 17.77929,38.78912 18.7301,34.10742 -5.7941,-20.46136 -35.4541,4.91802 -30.58361,-6.2207 4.08962,-9.23622 7.94282,-18.57409 11.85351,-27.88672 z m 47.02344,0.0254 c 37.13386,7.66159 -41.11445,7.65901 -0.50842,29.04337 37.92011,-0.89427 -34.67332,14.06886 -14.93298,-20.04791 l 6.26366,-6.0775 9.17774,-2.91797 z M 193.04102,696 c 5.18851,10.96296 1.01945,33.86248 16.69113,33.68817 C 181.99052,739.38928 190.83689,710.36182 193.04102,696 Z M 223,696 c 30.3169,0.14107 22.10043,-0.34812 6,10 3.6972,9.54907 29.84845,5.88995 0.5,9.5 -3.85258,17.33 40.18339,9.65776 0.15162,14.5 -13.9741,3.41639 -3.28734,-26.19604 -6.65162,-34 z m 162.41211,0 c 19.08487,28.21921 16.30513,4.93262 27.07008,2.30145 -12.64128,22.4776 -14.22521,45.18627 -24.2855,8.56044 4.32644,-0.6751 -11.08058,-11.77351 -2.78458,-10.86189 z m 62.5332,0 c -13.63254,25.33426 30.91716,35.72889 -1.09448,34 -7.15363,3.59607 -7.51431,-38.79808 1.09448,-34 z M 475,696 c 11.76738,-1.38653 2.87814,52.52911 0,25.31531 0,-8.43843 0,-16.87687 0,-25.31531 z m 20,0 c 24.17203,-1.37791 25.34489,2.59781 6.06119,7.89009 4.69628,15.394 21.85257,5.70113 0.31245,15.50205 C 495.50819,751.78061 494.00421,703.81913 495,696 Z m 33.92383,0 c 29.23326,-0.27673 23.66124,0.42324 6.26953,9.25 13.11354,9.85566 19.77642,5.13311 0.12133,13.13896 0.62594,12.29244 37.90781,8.46411 0.31544,11.61104 -13.68856,3.28151 -3.28241,-26.32903 -6.7063,-34 z m 71.43359,0 c 17.98613,23.08273 23.12188,41.57249 -9.37304,26 -17.54698,27.82987 1.0561,-25.075 9.37304,-26 z M 671,696 c 16.82338,-2.8801 40.54192,4.7811 5.9043,5.42969 -3.61286,16.68514 33.80409,9.64538 0.5957,14.07031 -1.94539,16.01114 35.10645,12.41254 0.21021,14.5 -14.05413,3.44962 -3.34607,-26.14903 -6.71021,-34 z m 38,0 c 24.00532,19.75456 19.66035,20.30599 30,0 2.53679,22.29317 -0.18159,51.01233 -19.85445,15.11283 -2.48369,-2.01326 -9.73188,37.25672 -10.14558,4.5455 0,-6.55278 2e-5,-13.10555 3e-5,-19.65833 z m 108.5957,0 c -3.68094,11.78079 -13.89929,56.89572 -20.73869,13.15815 C 781.32015,675.86887 810.96784,731.40988 817.5957,696 Z m -539.70508,0.043 c 34.5459,8.59919 -42.46859,6.00066 -2.81241,29.32803 27.10543,-28.48246 8.12203,24.41889 -13.88649,-3.37453 -7.13869,-11.96474 3.21165,-26.77815 16.6989,-25.9535 z M 600.08398,702 c -21.43866,24.96031 19.54853,20.39656 0,0 z m -282.38086,1.00391 c -22.46165,19.79268 22.48263,22.62089 0,0 z M 968,944 c 6.02662,21.11986 39.0013,22.13644 6.26572,36.46576 -0.14814,24.03944 -47.04998,-20.92073 -15.425,-21.62504 C 963.51786,954.94596 965.08893,949.04804 968,944 Z" />
  </g>
</svg>
