<?xml version="1.0" encoding="UTF-8" standalone="no"?>
<!-- Created with Inkscape (http://www.inkscape.org/) -->

<svg
   version="1.1"
   id="svg1"
   width="1024"
   height="1024"
   viewBox="0 0 1024 1024"
   xmlns="http://www.w3.org/2000/svg"
   xmlns:svg="http://www.w3.org/2000/svg">
  <defs
     id="defs1">
    <linearGradient
       id="swatch613">
      <stop
         style="stop-color:#040a08;stop-opacity:0;"
         offset="0"
         id="stop613" />
    </linearGradient>
  </defs>
  <g
     id="g1">
    <path
       id="path38"
       style="fill:#c9a24d;fill-opacity:1"
       d="m 509.81955,308.54883 c -0.9381,-0.0494 -1.1308,1.31914 -0.4629,4.19531 0.4796,2.06543 0.8834,7.58933 0.8965,12.27539 0.027,9.73888 -2.2095,19.06733 -7.5801,31.62109 l -3.4824,8.14063 5.664,9.85937 c 3.115,5.42267 6.1317,10.44186 6.7031,11.1543 1.2048,1.50174 6.0445,-6.24463 13.5958,-21.76367 7.843,-16.11862 6.9324,-26.04892 -3.8633,-42.18945 -5.7582,-8.60903 -9.7986,-13.205 -11.4707,-13.29297 z m -25.9043,46.98242 c -0.5344,0.0353 -0.641,1.26584 -0.6446,4.5957 -0.01,8.49162 -1.6959,16.63627 -4.832,23.33789 -2.7174,5.80694 -20.8021,35.15174 -23.7969,38.61328 -0.7512,0.86832 -1.3652,2.33081 -1.3652,3.25 0,1.49332 1.7359,1.67188 16.2969,1.67188 h 16.2949 l 5.4551,-8.19727 c 2.9996,-4.50799 8.0352,-12.23781 11.1914,-17.17968 l 5.7383,-8.98633 -2.6465,-4.56836 c -5.4303,-9.37043 -19.4181,-30.89755 -20.8477,-32.08398 -0.3594,-0.29831 -0.6346,-0.46694 -0.8437,-0.45313 z m 62.2187,0.0391 c -1.7906,0.17479 -26.8574,38.02164 -26.8574,40.62887 0,1.21342 12.0817,20.04039 17.6797,27.55078 l 2.4219,3.25 h 16.4492 c 12.7089,0 16.4492,-0.29106 16.4492,-1.28125 0,-1.3478 -5.7157,-11.42314 -14.6211,-25.77148 -9.899,-15.94917 -10.8718,-18.80761 -10.9355,-32.16993 -0.031,-6.4474 -0.2644,-11.93032 -0.5196,-12.18554 -0.0165,-0.0165 -0.038,-0.0243 -0.0664,-0.0215 z M 511.84495,405.5 c -0.4458,0 -4.2187,7.12558 -8.3829,15.83398 l -7.5703,15.83204 7.1875,14.41796 c 3.9534,7.9291 7.559,14.41602 8.0118,14.41602 0.4527,0 4.0601,-6.8625 8.0175,-15.25 3.9573,-8.3875 7.1894,-15.95193 7.1817,-16.81055 -0.018,-2.07857 -13.408,-28.43945 -14.4453,-28.43945 z m -43.1914,27.5 c -8.5471,0 -13.377,0.37437 -13.377,1.03516 0,1.25515 12.717,23.75517 14.8164,26.21484 1.2843,1.50462 3.3641,1.75 14.8379,1.75 7.3397,0 13.3457,-0.38067 13.3457,-0.8457 0,-1.02154 -13.2005,-24.48528 -14.9844,-26.63477 C 482.27935,433.29927 479.39945,433 468.65355,433 Z m 87.4609,0.22461 -15.1641,0.27539 -7.8203,13.37109 c -4.3017,7.35408 -7.5696,13.77909 -7.2617,14.27735 0.3079,0.49827 6.8754,0.78125 14.5957,0.6289 l 14.0371,-0.27734 8.3887,-13.38281 c 4.613,-7.36024 8.3867,-13.78381 8.3867,-14.27539 0,-0.49789 -6.7155,-0.77096 -15.1621,-0.61719 z M 511.71795,475 c -55.6044,0 -67.4414,0.23433 -67.4414,1.33594 0,1.25433 7.681,12.86952 18.293,27.66406 2.5644,3.575 5.3673,7.5125 6.2304,8.75 1.2293,1.76263 2.5362,2.25 6.0313,2.25 h 4.4609 l 3.6836,-7.44141 c 2.0251,-4.09277 4.0076,-7.24051 4.4063,-6.99414 0.3986,0.24636 1.9267,3.595 3.3965,7.44141 L 493.45035,515 h 18.4649 18.4648 l 0.9668,-2.75 c 0.532,-1.5125 2.0332,-5 3.334,-7.75 l 2.3652,-5 3.5899,7.75 3.5898,7.75 h 4.4473 4.4473 l 13.5742,-19.10352 c 7.4654,-10.50651 13.3225,-19.50651 13.0175,-20 C 579.39355,475.38118 550.45085,475 511.71795,475 Z m -39.4414,51 v 3 3 h 9.4121 9.4121 l 0.5547,3.75 c 0.6035,4.08069 2.4337,19.65037 5.6152,47.75 2.5986,22.95113 5.6178,48.03495 8.002,66.5 1.0297,7.975 2.1586,16.975 2.5098,20 0.9393,8.09091 1.3446,9 4.0156,9 1.9129,0 2.4987,-0.64584 2.9433,-3.25 0.9939,-5.82248 5.3346,-39.57921 9.0977,-70.75 2.0251,-16.775 4.8631,-39.95 6.3086,-51.5 l 2.6289,-21 9.75,-0.28711 9.75,-0.28516 V 528.96289 526 h -40 z" />
    <text
       xml:space="preserve"
       style="font-style:normal;font-variant:normal;font-weight:normal;font-stretch:normal;font-size:74.6667px;font-family:Baskerville;-inkscape-font-specification:'Baskerville, Normal';font-variant-ligatures:normal;font-variant-caps:normal;font-variant-numeric:normal;font-variant-east-asian:normal;text-align:start;letter-spacing:0.780357px;writing-mode:lr-tb;direction:ltr;text-anchor:start;opacity:1;fill:#1a1a1a;fill-opacity:0;stroke-width:5.57398"
       x="333.58228"
       y="544.36206"
       id="text610"
       transform="scale(0.68557619,1.4586271)"><tspan
         id="tspan610"
         style="font-style:normal;font-variant:normal;font-weight:normal;font-stretch:normal;font-size:74.6667px;font-family:Baskerville;-inkscape-font-specification:'Baskerville, Normal';font-variant-ligatures:normal;font-variant-caps:normal;font-variant-numeric:normal;font-variant-east-asian:normal;opacity:1;fill:#1a1a1a;fill-opacity:0;fill-rule:nonzero"
         x="333.58228"
         y="544.36206">LEGACY LIFE AGENCY</tspan></text>
  </g>
</svg>
